<svg width="30" height="30" viewBox="0 0 30 30" fill="none" xmlns="http://www.w3.org/2000/svg">
<path d="M5.60714 13.6667C5.60714 15.6533 5.60435 16.7322 5.45972 17.5596C5.32574 18.3261 5.06737 18.8831 4.46441 19.7859C4.32792 19.9903 4.25 20.2351 4.25 20.49C4.25 21.1859 4.81411 21.75 5.50997 21.75H23.49C24.1859 21.75 24.75 21.1859 24.75 20.49C24.75 20.2351 24.6721 19.9903 24.5356 19.7859C23.9326 18.8831 23.6743 18.3261 23.5403 17.5596C23.3957 16.7322 23.3929 15.6533 23.3929 13.6667C23.3929 10.8816 22.6841 8.51106 21.1633 6.83015C19.6314 5.13705 17.3723 4.25 14.5 4.25C11.6277 4.25 9.36855 5.13705 7.83671 6.83015C6.31588 8.51106 5.60714 10.8816 5.60714 13.6667Z" stroke="black" stroke-width="1.5" stroke-linecap="round"/>
</svg>