<svg width="78" height="70" viewBox="0 0 78 70" fill="none" xmlns="http://www.w3.org/2000/svg">
<rect width="78" height="70" fill="white"/>
<path d="M40.6201 40.63H37.3901C35.8873 40.63 34.9147 40.295 34.3099 39.6902C33.7051 39.0854 33.3701 38.1128 33.3701 36.61V33.38C33.3701 31.8772 33.7051 30.9046 34.3099 30.2998C34.9147 29.695 35.8873 29.36 37.3901 29.36H40.6201C42.1229 29.36 43.0955 29.695 43.7003 30.2998C44.3051 30.9046 44.6401 31.8772 44.6401 33.38V36.6093C44.6352 38.1118 44.2981 39.0849 43.6928 39.6902C43.0878 40.2952 42.1174 40.63 40.6201 40.63ZM37.3801 29.87C36.2125 29.87 35.2767 30.0488 34.6578 30.6677C34.0389 31.2866 33.8601 32.2224 33.8601 33.39V36.62C33.8601 37.7876 34.0389 38.7234 34.6578 39.3423C35.2767 39.9612 36.2125 40.14 37.3801 40.14H40.6101C41.7777 40.14 42.7135 39.9612 43.3324 39.3423C43.9513 38.7234 44.1301 37.7876 44.1301 36.62V33.39C44.1301 32.2224 43.9513 31.2866 43.3324 30.6677C42.7135 30.0488 41.7777 29.87 40.6101 29.87H37.3801Z" fill="#00DFEB" stroke="#00DFEB"/>
<path d="M44.63 35.02V35.52H45.13H45.23C46.3976 35.52 47.3334 35.3412 47.9523 34.7223C48.5712 34.1034 48.75 33.1676 48.75 32V28.77C48.75 27.6024 48.5712 26.6666 47.9523 26.0477C47.3334 25.4288 46.3976 25.25 45.23 25.25H42C40.8324 25.25 39.8966 25.4288 39.2777 26.0477C38.6588 26.6666 38.48 27.6024 38.48 28.77V28.87V29.37H38.98H40.61C42.1128 29.37 43.0854 29.705 43.6902 30.3098C44.295 30.9146 44.63 31.8872 44.63 33.39V35.02ZM45.23 36.02H44.38C44.2461 36.02 44.13 35.9038 44.13 35.77V33.39C44.13 32.2224 43.9512 31.2866 43.3323 30.6677C42.7134 30.0488 41.7776 29.87 40.61 29.87H38.23C38.0961 29.87 37.98 29.7539 37.98 29.62V28.77C37.98 27.2672 38.315 26.2946 38.9198 25.6898C39.5246 25.085 40.4972 24.75 42 24.75H45.23C46.7328 24.75 47.7054 25.085 48.3102 25.6898C48.915 26.2946 49.25 27.2672 49.25 28.77V32C49.25 33.5028 48.915 34.4754 48.3102 35.0802C47.7054 35.685 46.7328 36.02 45.23 36.02Z" fill="#00DFEB" stroke="#00DFEB"/>
<path d="M39.52 41.13V40.63H39.02H37.39C35.8872 40.63 34.9146 40.295 34.3098 39.6902C33.705 39.0854 33.37 38.1128 33.37 36.61V34.98V34.48H32.87H32.77C31.6024 34.48 30.6666 34.6588 30.0477 35.2777C29.4288 35.8966 29.25 36.8324 29.25 38V41.23C29.25 42.3976 29.4288 43.3334 30.0477 43.9523C30.6666 44.5712 31.6024 44.75 32.77 44.75H36C37.1676 44.75 38.1034 44.5712 38.7223 43.9523C39.3412 43.3334 39.52 42.3976 39.52 41.23V41.13ZM36 45.25H32.77C31.2672 45.25 30.2946 44.915 29.6898 44.3102C29.085 43.7054 28.75 42.7328 28.75 41.23V38C28.75 36.4972 29.085 35.5246 29.6898 34.9198C30.2946 34.315 31.2672 33.98 32.77 33.98H33.62C33.7539 33.98 33.87 34.0961 33.87 34.23V36.61C33.87 37.7776 34.0488 38.7133 34.6677 39.3323C35.2866 39.9512 36.2224 40.13 37.39 40.13H39.77C39.9039 40.13 40.02 40.2461 40.02 40.38V41.23C40.02 42.7328 39.685 43.7054 39.0802 44.3102C38.4754 44.915 37.5028 45.25 36 45.25Z" fill="#00DFEB" stroke="#00DFEB"/>
</svg>