<svg width="78" height="70" viewBox="0 0 78 70" fill="none" xmlns="http://www.w3.org/2000/svg">
<path d="M40.6201 41.13H37.3901C34.2601 41.13 32.8701 39.74 32.8701 36.61V33.38C32.8701 30.25 34.2601 28.86 37.3901 28.86H40.6201C43.7501 28.86 45.1401 30.25 45.1401 33.38V36.61C45.1301 39.74 43.7401 41.13 40.6201 41.13ZM37.3801 30.37C35.0901 30.37 34.3601 31.1 34.3601 33.39V36.62C34.3601 38.91 35.0901 39.64 37.3801 39.64H40.6101C42.9001 39.64 43.6301 38.91 43.6301 36.62V33.39C43.6301 31.1 42.9001 30.37 40.6101 30.37H37.3801Z" fill="black"/>
<path d="M45.23 36.52H44.38C43.97 36.52 43.63 36.18 43.63 35.77V33.39C43.63 31.1 42.9 30.37 40.61 30.37H38.23C37.82 30.37 37.48 30.03 37.48 29.62V28.77C37.48 25.64 38.87 24.25 42 24.25H45.23C48.36 24.25 49.75 25.64 49.75 28.77V32C49.75 35.13 48.36 36.52 45.23 36.52ZM45.13 35.02H45.23C47.52 35.02 48.25 34.29 48.25 32V28.77C48.25 26.48 47.52 25.75 45.23 25.75H42C39.71 25.75 38.98 26.48 38.98 28.77V28.87H40.61C43.74 28.87 45.13 30.26 45.13 33.39V35.02Z" fill="black"/>
<path d="M36 45.75H32.77C29.64 45.75 28.25 44.36 28.25 41.23V38C28.25 34.87 29.64 33.48 32.77 33.48H33.62C34.03 33.48 34.37 33.82 34.37 34.23V36.61C34.37 38.9 35.1 39.63 37.39 39.63H39.77C40.18 39.63 40.52 39.97 40.52 40.38V41.23C40.52 44.36 39.13 45.75 36 45.75ZM32.77 34.98C30.48 34.98 29.75 35.71 29.75 38V41.23C29.75 43.52 30.48 44.25 32.77 44.25H36C38.29 44.25 39.02 43.52 39.02 41.23V41.13H37.39C34.26 41.13 32.87 39.74 32.87 36.61V34.98H32.77Z" fill="black"/>
</svg>