<svg width="78" height="70" viewBox="0 0 78 70" fill="none" xmlns="http://www.w3.org/2000/svg">
<rect width="78" height="70" fill="white"/>
<path d="M30.7827 30.2456L30.7827 30.2456L36.1725 26.0457C36.1726 26.0456 36.1726 26.0456 36.1727 26.0456C36.8201 25.5408 37.6736 25.2944 38.5054 25.2763C39.3374 25.2583 40.2026 25.4674 40.8769 25.9405L30.7827 30.2456ZM30.7827 30.2456L30.7804 30.2474C30.3487 30.5879 29.9724 31.1141 29.7052 31.6566C29.4383 32.1984 29.25 32.8182 29.25 33.37V40.78C29.25 42.9642 31.022 44.75 33.21 44.75H44.79C46.9761 44.75 48.75 42.9761 48.75 40.79V33.51C48.75 32.9246 48.5446 32.2718 48.2496 31.7062C47.9553 31.1422 47.5383 30.6004 47.0547 30.2689L40.8772 25.9407L30.7827 30.2456ZM30.477 29.8547L30.4773 29.8544L35.867 25.6547C35.8671 25.6546 35.8672 25.6545 35.8673 25.6544C35.8673 25.6544 35.8673 25.6544 35.8673 25.6544C37.3134 24.5299 39.662 24.4751 41.1626 25.5291L41.1631 25.5295L47.3431 29.8595L47.344 29.8601C47.8581 30.2186 48.3396 30.8022 48.6931 31.4789C49.0465 32.1557 49.25 32.8839 49.25 33.51V40.79C49.25 43.2445 47.2532 45.25 44.79 45.25H33.21C30.7475 45.25 28.75 43.2451 28.75 40.78V33.37C28.75 32.7845 28.9335 32.0927 29.2538 31.4404C29.5741 30.7883 30.0107 30.2173 30.477 29.8547Z" fill="#00DFEB" stroke="#00DFEB"/>
<path d="M39 41.25C38.8661 41.25 38.75 41.1339 38.75 41V38C38.75 37.8661 38.8661 37.75 39 37.75C39.1339 37.75 39.25 37.8661 39.25 38V41C39.25 41.1339 39.1339 41.25 39 41.25Z" fill="#00DFEB" stroke="#00DFEB"/>
</svg>