<svg width="24" height="24" viewBox="0 0 24 24" fill="none" xmlns="http://www.w3.org/2000/svg">
<path d="M11.7064 6.9589L13.5627 5.08755C14.3486 4.3654 15.3803 3.97631 16.4434 4.00112C17.5065 4.02593 18.5192 4.46274 19.2712 5.22078C20.0231 5.97883 20.4564 6.9998 20.481 8.07155C20.5056 9.14329 20.1196 10.1834 19.4033 10.9757L16.7502 13.641C16.3678 14.0279 15.9134 14.3349 15.4131 14.5444C14.9128 14.7539 14.3763 14.8617 13.8346 14.8617C13.2928 14.8617 12.7564 14.7539 12.256 14.5444C11.7557 14.3349 11.3013 14.0279 10.9189 13.641" stroke="black" stroke-width="1.5" stroke-linecap="round" stroke-linejoin="round"/>
<path d="M12.7756 17.6577L10.9194 19.529C10.1335 20.2512 9.10178 20.6403 8.03869 20.6155C6.97559 20.5906 5.96286 20.1538 5.21093 19.3958C4.45901 18.6378 4.02572 17.6168 4.00111 16.545C3.9765 15.4733 4.36245 14.4332 5.07877 13.6409L7.7319 10.9756C8.11427 10.5887 8.56865 10.2817 9.06899 10.0722C9.56932 9.86272 10.1058 9.75488 10.6475 9.75488C11.1893 9.75488 11.7257 9.86272 12.2261 10.0722C12.7264 10.2817 13.1808 10.5887 13.5632 10.9756" stroke="black" stroke-width="1.5" stroke-linecap="round" stroke-linejoin="round"/>
</svg>