<svg width="30" height="30" viewBox="0 0 30 30" fill="none" xmlns="http://www.w3.org/2000/svg">
<mask id="path-1-inside-1_83_4122" fill="white">
<path fill-rule="evenodd" clip-rule="evenodd" d="M5 5C5 3.89543 5.89543 3 7 3H23C24.1046 3 25 3.89543 25 5V21.0374H24.9992V23.757C24.9992 25.3108 23.3048 26.2711 21.9718 25.4729L15 21.2982L8.02824 25.4729C6.69516 26.2711 5.00076 25.3108 5.00076 23.757L5.00076 21.0374H5V5Z"/>
</mask>
<path fill-rule="evenodd" clip-rule="evenodd" d="M5 5C5 3.89543 5.89543 3 7 3H23C24.1046 3 25 3.89543 25 5V21.0374H24.9992V23.757C24.9992 25.3108 23.3048 26.2711 21.9718 25.4729L15 21.2982L8.02824 25.4729C6.69516 26.2711 5.00076 25.3108 5.00076 23.757L5.00076 21.0374H5V5Z" fill="#00DFEB"/>
<path d="M25 21.0374V22.0374H26V21.0374H25ZM24.9992 21.0374V20.0374H23.9992V21.0374H24.9992ZM21.9718 25.4729L21.458 26.3308L21.9718 25.4729ZM15 21.2982L15.5137 20.4403L15 20.1326L14.4863 20.4403L15 21.2982ZM8.02824 25.4729L8.54197 26.3308H8.54198L8.02824 25.4729ZM5.00076 23.757H6.00076H5.00076ZM5.00076 21.0374H6.00076V20.0374H5.00076V21.0374ZM5 21.0374H4V22.0374H5V21.0374ZM7 2C5.34314 2 4 3.34315 4 5H6C6 4.44772 6.44772 4 7 4V2ZM23 2H7V4H23V2ZM26 5C26 3.34315 24.6569 2 23 2V4C23.5523 4 24 4.44772 24 5H26ZM26 21.0374V5H24V21.0374H26ZM24.9992 22.0374H25V20.0374H24.9992V22.0374ZM25.9992 23.757V21.0374H23.9992V23.757H25.9992ZM21.458 26.3308C23.4576 27.5282 25.9992 26.0877 25.9992 23.757H23.9992C23.9992 24.5339 23.152 25.0141 22.4855 24.6149L21.458 26.3308ZM14.4863 22.1561L21.458 26.3308L22.4855 24.6149L15.5137 20.4403L14.4863 22.1561ZM8.54198 26.3308L15.5137 22.1561L14.4863 20.4403L7.5145 24.6149L8.54198 26.3308ZM4.00076 23.757C4.00076 26.0877 6.54236 27.5282 8.54197 26.3308L7.5145 24.6149C6.84796 25.0141 6.00076 24.5339 6.00076 23.757H4.00076ZM4.00076 21.0374L4.00076 23.757H6.00076L6.00076 21.0374H4.00076ZM5 22.0374H5.00076V20.0374H5V22.0374ZM4 5V21.0374H6V5H4Z" fill="#00DFEB" mask="url(#path-1-inside-1_83_4122)"/>
</svg>