<svg width="78" height="70" viewBox="0 0 78 70" fill="none" xmlns="http://www.w3.org/2000/svg">
<path d="M32.7943 44.8613L32.7943 44.8612L32.7912 44.8603C32.6865 44.8295 32.6041 44.7209 32.6091 44.5936C32.8362 41.9388 35.5739 39.72 39.0001 39.72C42.4286 39.72 45.1599 41.9323 45.3919 44.6022C45.4018 44.724 45.3329 44.8249 45.2128 44.8593L45.2128 44.8592L45.206 44.8613C44.3378 45.1227 43.29 45.25 42.0001 45.25H36.0001C34.7103 45.25 33.6625 45.1227 32.7943 44.8613ZM33.2382 43.927L33.0948 44.4464L33.6235 44.5506C34.3244 44.6886 35.1085 44.75 36.0001 44.75H42.0001C42.8918 44.75 43.6759 44.6886 44.3768 44.5506L44.9055 44.4464L44.7621 43.927C44.1547 41.7266 41.7114 40.22 39.0001 40.22C36.2889 40.22 33.8456 41.7266 33.2382 43.927Z" fill="#00DFEB" stroke="#00DFEB"/>
<path d="M42 25H36C31 25 29 27 29 32V38C29 41.78 30.14 43.85 32.86 44.62C33.08 42.02 35.75 39.97 39 39.97C42.25 39.97 44.92 42.02 45.14 44.62C47.86 43.85 49 41.78 49 38V32C49 27 47 25 42 25ZM39 37.17C37.02 37.17 35.42 35.56 35.42 33.58C35.42 31.6 37.02 30 39 30C40.98 30 42.58 31.6 42.58 33.58C42.58 35.56 40.98 37.17 39 37.17Z" stroke="#00DFEB" stroke-width="1.5" stroke-linecap="round" stroke-linejoin="round"/>
<path d="M38.9999 37.42C36.8876 37.42 35.1699 35.6954 35.1699 33.58C35.1699 31.4662 36.8861 29.75 38.9999 29.75C41.1138 29.75 42.8299 31.4662 42.8299 33.58C42.8299 35.6954 41.1123 37.42 38.9999 37.42ZM38.9999 30.25C37.1638 30.25 35.6699 31.7439 35.6699 33.58C35.6699 35.425 37.1626 36.92 38.9999 36.92C40.8372 36.92 42.3299 35.425 42.3299 33.58C42.3299 31.7439 40.8361 30.25 38.9999 30.25Z" fill="#00DFEB" stroke="#00DFEB"/>
</svg>