<svg width="40" height="40" viewBox="0 0 40 40" fill="none" xmlns="http://www.w3.org/2000/svg">
<circle r="20" transform="matrix(1 0 0 -1 20 20)" fill="black"/>
<path d="M20.0002 20C21.1052 20 22.165 19.561 22.9464 18.7796C23.7278 17.9982 24.1668 16.9384 24.1668 15.8333C24.1668 14.7283 23.7278 13.6684 22.9464 12.887C22.165 12.1056 21.1052 11.6667 20.0002 11.6667C18.8951 11.6667 17.8353 12.1056 17.0539 12.887C16.2725 13.6684 15.8335 14.7283 15.8335 15.8333C15.8335 16.9384 16.2725 17.9982 17.0539 18.7796C17.8353 19.561 18.8951 20 20.0002 20V20Z" stroke="white" stroke-linecap="round" stroke-linejoin="round"/>
<path d="M26.0085 23.1167L23.0585 26.0667C22.9419 26.1833 22.8335 26.4 22.8085 26.5583L22.6502 27.6833C22.5919 28.0917 22.8752 28.375 23.2835 28.3167L24.4085 28.1583C24.5669 28.1333 24.7919 28.025 24.9002 27.9083L27.8502 24.9583C28.3585 24.45 28.6002 23.8583 27.8502 23.1083C27.1085 22.3667 26.5169 22.6083 26.0085 23.1167V23.1167Z" stroke="white" stroke-miterlimit="10" stroke-linecap="round" stroke-linejoin="round"/>
<path d="M25.5835 23.5417C25.8335 24.4417 26.5335 25.1417 27.4335 25.3917" stroke="white" stroke-miterlimit="10" stroke-linecap="round" stroke-linejoin="round"/>
<path d="M12.8418 28.3333C12.8418 25.1083 16.0501 22.5 20.0001 22.5C20.8668 22.5 21.7001 22.625 22.4751 22.8583" stroke="white" stroke-linecap="round" stroke-linejoin="round"/>
</svg>