<svg width="78" height="70" viewBox="0 0 78 70" fill="none" xmlns="http://www.w3.org/2000/svg">
<path d="M35 28.25C34.8661 28.25 34.75 28.1339 34.75 28V25C34.75 24.8661 34.8661 24.75 35 24.75C35.1339 24.75 35.25 24.8661 35.25 25V28C35.25 28.1339 35.1339 28.25 35 28.25Z" fill="#00DFEB" stroke="#00DFEB"/>
<path d="M43 28.25C42.8661 28.25 42.75 28.1339 42.75 28V25C42.75 24.8661 42.8661 24.75 43 24.75C43.1339 24.75 43.25 24.8661 43.25 25V28C43.25 28.1339 43.1339 28.25 43 28.25Z" fill="#00DFEB" stroke="#00DFEB"/>
<path d="M35.3123 36.9585L35.3124 36.9583L35.2995 36.9533C35.247 36.9331 35.2015 36.9055 35.1403 36.8524C35.0486 36.7496 35 36.6255 35 36.5C35 36.4459 35.0128 36.3812 35.0415 36.3123C35.0661 36.2533 35.0999 36.1973 35.1451 36.1435C35.2038 36.0931 35.2483 36.0663 35.2995 36.0467L35.2996 36.0468L35.3123 36.0415C35.49 35.9675 35.7195 36.011 35.8518 36.139C35.9468 36.2419 36 36.3784 36 36.5C36 36.5166 35.9967 36.5468 35.9862 36.6208C35.9848 36.6276 35.9814 36.6393 35.9728 36.6564L35.9569 36.6882L35.9457 36.7219C35.9415 36.7343 35.9327 36.7546 35.914 36.7827L35.9074 36.7926L35.9053 36.7961C35.903 36.799 35.8992 36.8037 35.8928 36.8112C35.8871 36.8178 35.8825 36.8232 35.8765 36.8301C35.8726 36.8345 35.8683 36.8396 35.8628 36.8459C35.8581 36.8514 35.8528 36.8575 35.8472 36.8641C35.7461 36.9514 35.6162 37 35.5 37C35.4458 37 35.3811 36.9872 35.3123 36.9585Z" fill="#00DFEB" stroke="#00DFEB"/>
<path d="M38.8123 36.9585L38.8124 36.9583L38.7995 36.9533C38.747 36.9331 38.7015 36.9055 38.6403 36.8524C38.5486 36.7495 38.5 36.6254 38.5 36.5C38.5 36.4458 38.5128 36.3812 38.5415 36.3123C38.5661 36.2533 38.5999 36.1973 38.6451 36.1435C38.7038 36.0931 38.7483 36.0663 38.7995 36.0467L38.8114 36.0421L38.8231 36.0369C38.9857 35.9646 39.2125 36.0039 39.3518 36.139C39.4468 36.2418 39.5 36.3784 39.5 36.5C39.5 36.5166 39.4967 36.5468 39.4862 36.6208C39.4848 36.6276 39.4814 36.6393 39.4728 36.6564L39.4569 36.6882L39.4457 36.7219C39.4415 36.7343 39.4327 36.7546 39.414 36.7826L39.4074 36.7925L39.4053 36.7961C39.403 36.799 39.3992 36.8036 39.3928 36.8111C39.3871 36.8178 39.3825 36.8232 39.3765 36.8301C39.3726 36.8345 39.3683 36.8395 39.3628 36.8459C39.3581 36.8514 39.3528 36.8575 39.3472 36.8641C39.2461 36.9514 39.1162 37 39 37C38.9458 37 38.8811 36.9871 38.8123 36.9585Z" fill="#00DFEB" stroke="#00DFEB"/>
<path d="M42.3123 36.9585L42.3124 36.9583L42.2995 36.9533C42.2505 36.9345 42.2077 36.9092 42.1526 36.8629L42.1204 36.8226L42.0766 36.7679C42.0642 36.7474 42.0577 36.732 42.0543 36.7219L42.0431 36.6882L42.0272 36.6564C42.0186 36.6393 42.0152 36.6276 42.0138 36.6208C42.0033 36.5468 42 36.5166 42 36.5C42 36.3817 42.0503 36.2493 42.1406 36.1474C42.2016 36.0945 42.247 36.0668 42.2995 36.0467L42.3091 36.043L42.3185 36.0389C42.4945 35.9628 42.7136 36.0047 42.8517 36.1389C42.9468 36.2418 43 36.3784 43 36.5C43 36.5166 42.9967 36.5468 42.9862 36.6208C42.9848 36.6276 42.9814 36.6393 42.9728 36.6564L42.9569 36.6882L42.9457 36.7219C42.9415 36.7343 42.9327 36.7546 42.914 36.7826L42.9074 36.7925L42.9053 36.7961C42.903 36.799 42.8992 36.8036 42.8928 36.8111C42.8871 36.8178 42.8825 36.8232 42.8765 36.8301C42.8726 36.8345 42.8683 36.8395 42.8628 36.8459C42.8581 36.8514 42.8528 36.8575 42.8472 36.8641C42.7461 36.9514 42.6162 37 42.5 37C42.4458 37 42.3811 36.9871 42.3123 36.9585Z" fill="#00DFEB" stroke="#00DFEB"/>
<path d="M35.0415 39.8123L35.0417 39.8124L35.0467 39.7995C35.0739 39.7286 35.1075 39.6796 35.1436 39.6436C35.2204 39.5667 35.3483 39.5125 35.5 39.5125C35.6487 39.5125 35.7746 39.5646 35.8519 39.6391C35.9469 39.742 36 39.8785 36 40C36 40.1197 35.9484 40.2539 35.8562 40.3562C35.7539 40.4484 35.6197 40.5 35.5 40.5C35.4458 40.5 35.3811 40.4872 35.3123 40.4585C35.252 40.4334 35.1948 40.3986 35.14 40.3519C35.0501 40.2502 35 40.1181 35 40C35 39.9459 35.0128 39.8812 35.0415 39.8123Z" fill="#00DFEB" stroke="#00DFEB"/>
<path d="M38.5415 39.8123L38.5417 39.8124L38.5467 39.7995C38.5739 39.7286 38.6075 39.6796 38.6436 39.6436C38.7204 39.5667 38.8483 39.5125 39 39.5125C39.1517 39.5125 39.2796 39.5667 39.3564 39.6436C39.3925 39.6796 39.4261 39.7286 39.4533 39.7995L39.4531 39.7996L39.4585 39.8123C39.4872 39.8812 39.5 39.9459 39.5 40C39.5 40.1197 39.4484 40.2539 39.3562 40.3562C39.2539 40.4484 39.1197 40.5 39 40.5C38.8803 40.5 38.7461 40.4484 38.6438 40.3562C38.5516 40.2539 38.5 40.1197 38.5 40C38.5 39.9459 38.5128 39.8812 38.5415 39.8123Z" fill="#00DFEB" stroke="#00DFEB"/>
<path d="M42.0467 40.2006L42.0469 40.2005L42.0415 40.1877C42.0128 40.1189 42 40.0542 42 40C42 39.9459 42.0128 39.8812 42.0415 39.8123L42.0417 39.8124L42.0467 39.7995C42.0739 39.7286 42.1075 39.6796 42.1436 39.6436C42.2586 39.5286 42.437 39.4765 42.5832 39.5085L42.6011 39.5124L42.6193 39.515C42.6316 39.5168 42.6402 39.5191 42.6564 39.5272L42.6882 39.5431L42.7219 39.5544C42.7342 39.5585 42.7545 39.5673 42.7827 39.5861L42.7926 39.5927L42.7961 39.5948C42.799 39.5971 42.8037 39.6009 42.8112 39.6073C42.8178 39.6129 42.8232 39.6176 42.8302 39.6236C42.8346 39.6274 42.8396 39.6318 42.8459 39.6373C42.8514 39.642 42.8575 39.6472 42.8641 39.6528C42.9514 39.7539 43 39.8838 43 40C43 40.1197 42.9484 40.2539 42.8562 40.3562C42.7539 40.4485 42.6197 40.5 42.5 40.5C42.3784 40.5 42.242 40.4469 42.1391 40.3519C42.1047 40.3163 42.0728 40.2685 42.0467 40.2006Z" fill="#00DFEB" stroke="#00DFEB"/>
<path d="M47.5 32.34H30.5C30.3661 32.34 30.25 32.2238 30.25 32.09C30.25 31.9561 30.3661 31.84 30.5 31.84H47.5C47.6339 31.84 47.75 31.9561 47.75 32.09C47.75 32.2238 47.6339 32.34 47.5 32.34Z" fill="#00DFEB" stroke="#00DFEB"/>
<path d="M43 45.25H35C33.2699 45.25 31.9736 44.754 31.1098 43.8902C30.246 43.0264 29.75 41.7301 29.75 40V31.5C29.75 29.7699 30.246 28.4736 31.1098 27.6098C31.9736 26.746 33.2699 26.25 35 26.25H43C44.7301 26.25 46.0264 26.746 46.8902 27.6098C47.754 28.4736 48.25 29.7699 48.25 31.5V40C48.25 41.7301 47.754 43.0264 46.8902 43.8902C46.0264 44.754 44.7301 45.25 43 45.25ZM35 26.75C33.4965 26.75 32.2826 27.1153 31.4489 27.9489C30.6153 28.7826 30.25 29.9965 30.25 31.5V40C30.25 41.5035 30.6153 42.7174 31.4489 43.5511C32.2826 44.3847 33.4965 44.75 35 44.75H43C44.5035 44.75 45.7174 44.3847 46.5511 43.5511C47.3847 42.7174 47.75 41.5035 47.75 40V31.5C47.75 29.9965 47.3847 28.7826 46.5511 27.9489C45.7174 27.1153 44.5035 26.75 43 26.75H35Z" fill="#00DFEB" stroke="#00DFEB"/>
</svg>