<svg width="78" height="70" viewBox="0 0 78 70" fill="none" xmlns="http://www.w3.org/2000/svg">
<path d="M35 28.75C34.59 28.75 34.25 28.41 34.25 28V25C34.25 24.59 34.59 24.25 35 24.25C35.41 24.25 35.75 24.59 35.75 25V28C35.75 28.41 35.41 28.75 35 28.75Z" fill="black"/>
<path d="M43 28.75C42.59 28.75 42.25 28.41 42.25 28V25C42.25 24.59 42.59 24.25 43 24.25C43.41 24.25 43.75 24.59 43.75 25V28C43.75 28.41 43.41 28.75 43 28.75Z" fill="black"/>
<path d="M35.5 37.5C35.37 37.5 35.24 37.47 35.12 37.42C34.99 37.37 34.89 37.3 34.79 37.21C34.61 37.02 34.5 36.77 34.5 36.5C34.5 36.37 34.53 36.24 34.58 36.12C34.63 36 34.7 35.89 34.79 35.79C34.89 35.7 34.99 35.63 35.12 35.58C35.48 35.43 35.93 35.51 36.21 35.79C36.39 35.98 36.5 36.24 36.5 36.5C36.5 36.56 36.49 36.63 36.48 36.7C36.47 36.76 36.45 36.82 36.42 36.88C36.4 36.94 36.37 37 36.33 37.06C36.3 37.11 36.25 37.16 36.21 37.21C36.02 37.39 35.76 37.5 35.5 37.5Z" fill="black"/>
<path d="M39 37.5C38.87 37.5 38.74 37.47 38.62 37.42C38.49 37.37 38.39 37.3 38.29 37.21C38.11 37.02 38 36.77 38 36.5C38 36.37 38.03 36.24 38.08 36.12C38.13 36 38.2 35.89 38.29 35.79C38.39 35.7 38.49 35.63 38.62 35.58C38.98 35.42 39.43 35.51 39.71 35.79C39.89 35.98 40 36.24 40 36.5C40 36.56 39.99 36.63 39.98 36.7C39.97 36.76 39.95 36.82 39.92 36.88C39.9 36.94 39.87 37 39.83 37.06C39.8 37.11 39.75 37.16 39.71 37.21C39.52 37.39 39.26 37.5 39 37.5Z" fill="black"/>
<path d="M42.5 37.5C42.37 37.5 42.24 37.47 42.12 37.42C41.99 37.37 41.89 37.3 41.79 37.21C41.75 37.16 41.71 37.11 41.67 37.06C41.63 37 41.6 36.94 41.58 36.88C41.55 36.82 41.53 36.76 41.52 36.7C41.51 36.63 41.5 36.56 41.5 36.5C41.5 36.24 41.61 35.98 41.79 35.79C41.89 35.7 41.99 35.63 42.12 35.58C42.49 35.42 42.93 35.51 43.21 35.79C43.39 35.98 43.5 36.24 43.5 36.5C43.5 36.56 43.49 36.63 43.48 36.7C43.47 36.76 43.45 36.82 43.42 36.88C43.4 36.94 43.37 37 43.33 37.06C43.3 37.11 43.25 37.16 43.21 37.21C43.02 37.39 42.76 37.5 42.5 37.5Z" fill="black"/>
<path d="M35.5 41C35.37 41 35.24 40.97 35.12 40.92C35 40.87 34.89 40.8 34.79 40.71C34.61 40.52 34.5 40.26 34.5 40C34.5 39.87 34.53 39.74 34.58 39.62C34.63 39.49 34.7 39.38 34.79 39.29C35.16 38.92 35.84 38.92 36.21 39.29C36.39 39.48 36.5 39.74 36.5 40C36.5 40.26 36.39 40.52 36.21 40.71C36.02 40.89 35.76 41 35.5 41Z" fill="black"/>
<path d="M39 41C38.74 41 38.48 40.89 38.29 40.71C38.11 40.52 38 40.26 38 40C38 39.87 38.03 39.74 38.08 39.62C38.13 39.49 38.2 39.38 38.29 39.29C38.66 38.92 39.34 38.92 39.71 39.29C39.8 39.38 39.87 39.49 39.92 39.62C39.97 39.74 40 39.87 40 40C40 40.26 39.89 40.52 39.71 40.71C39.52 40.89 39.26 41 39 41Z" fill="black"/>
<path d="M42.5 41C42.24 41 41.98 40.89 41.79 40.71C41.7 40.62 41.63 40.51 41.58 40.38C41.53 40.26 41.5 40.13 41.5 40C41.5 39.87 41.53 39.74 41.58 39.62C41.63 39.49 41.7 39.38 41.79 39.29C42.02 39.06 42.37 38.95 42.69 39.02C42.76 39.03 42.82 39.05 42.88 39.08C42.94 39.1 43 39.13 43.06 39.17C43.11 39.2 43.16 39.25 43.21 39.29C43.39 39.48 43.5 39.74 43.5 40C43.5 40.26 43.39 40.52 43.21 40.71C43.02 40.89 42.76 41 42.5 41Z" fill="black"/>
<path d="M47.5 32.84H30.5C30.09 32.84 29.75 32.5 29.75 32.09C29.75 31.68 30.09 31.34 30.5 31.34H47.5C47.91 31.34 48.25 31.68 48.25 32.09C48.25 32.5 47.91 32.84 47.5 32.84Z" fill="black"/>
<path d="M43 45.75H35C31.35 45.75 29.25 43.65 29.25 40V31.5C29.25 27.85 31.35 25.75 35 25.75H43C46.65 25.75 48.75 27.85 48.75 31.5V40C48.75 43.65 46.65 45.75 43 45.75ZM35 27.25C32.14 27.25 30.75 28.64 30.75 31.5V40C30.75 42.86 32.14 44.25 35 44.25H43C45.86 44.25 47.25 42.86 47.25 40V31.5C47.25 28.64 45.86 27.25 43 27.25H35Z" fill="black"/>
</svg>