<svg width="30" height="30" viewBox="0 0 30 30" fill="none" xmlns="http://www.w3.org/2000/svg">
<path d="M25 25.6724L23 23.6052M14.5 24.6388C15.7476 24.6388 16.9829 24.3848 18.1355 23.8914C19.2881 23.3979 20.3354 22.6746 21.2175 21.7628C22.0997 20.851 22.7994 19.7685 23.2769 18.5771C23.7543 17.3858 24 16.1089 24 14.8194C24 13.5299 23.7543 12.253 23.2769 11.0617C22.7994 9.87034 22.0997 8.78786 21.2175 7.87604C20.3354 6.96422 19.2881 6.24093 18.1355 5.74746C16.9829 5.25399 15.7476 5 14.5 5C11.9804 5 9.56408 6.03454 7.78249 7.87604C6.00089 9.71754 5 12.2151 5 14.8194C5 17.4237 6.00089 19.9213 7.78249 21.7628C9.56408 23.6043 11.9804 24.6388 14.5 24.6388V24.6388Z" stroke="black" stroke-width="1.5" stroke-linecap="round" stroke-linejoin="round"/>
</svg>