<svg width="78" height="70" viewBox="0 0 78 70" fill="none" xmlns="http://www.w3.org/2000/svg">
<rect width="78" height="70" fill="white"/>
<path d="M39 35.75C35.83 35.75 33.25 33.17 33.25 30C33.25 26.83 35.83 24.25 39 24.25C42.17 24.25 44.75 26.83 44.75 30C44.75 33.17 42.17 35.75 39 35.75ZM39 25.75C36.66 25.75 34.75 27.66 34.75 30C34.75 32.34 36.66 34.25 39 34.25C41.34 34.25 43.25 32.34 43.25 30C43.25 27.66 41.34 25.75 39 25.75Z" fill="black"/>
<path d="M30.4102 45.75C30.0002 45.75 29.6602 45.41 29.6602 45C29.6602 40.73 33.8502 37.25 39.0002 37.25C39.4102 37.25 39.7502 37.59 39.7502 38C39.7502 38.41 39.4102 38.75 39.0002 38.75C34.6802 38.75 31.1602 41.55 31.1602 45C31.1602 45.41 30.8202 45.75 30.4102 45.75Z" fill="black"/>
<path d="M45.2 45.15C43.02 45.15 41.25 43.38 41.25 41.2C41.25 39.02 43.02 37.25 45.2 37.25C47.38 37.25 49.15 39.02 49.15 41.2C49.15 43.38 47.38 45.15 45.2 45.15ZM45.2 38.75C43.85 38.75 42.75 39.85 42.75 41.2C42.75 42.55 43.85 43.65 45.2 43.65C46.55 43.65 47.65 42.55 47.65 41.2C47.65 39.85 46.55 38.75 45.2 38.75Z" fill="black"/>
<path d="M49 45.75C48.81 45.75 48.6199 45.68 48.4699 45.53L47.4699 44.53C47.1799 44.24 47.1799 43.7599 47.4699 43.4699C47.7599 43.1799 48.24 43.1799 48.53 43.4699L49.53 44.4699C49.82 44.7599 49.82 45.24 49.53 45.53C49.38 45.68 49.19 45.75 49 45.75Z" fill="black"/>
</svg>