<svg width="78" height="70" viewBox="0 0 78 70" fill="none" xmlns="http://www.w3.org/2000/svg">
<path d="M39 35.25C36.1061 35.25 33.75 32.8939 33.75 30C33.75 27.1061 36.1061 24.75 39 24.75C41.8939 24.75 44.25 27.1061 44.25 30C44.25 32.8939 41.8939 35.25 39 35.25ZM39 25.25C36.3839 25.25 34.25 27.3839 34.25 30C34.25 32.6161 36.3839 34.75 39 34.75C41.6161 34.75 43.75 32.6161 43.75 30C43.75 27.3839 41.6161 25.25 39 25.25Z" fill="#00DFEB" stroke="#00DFEB"/>
<path d="M30.4102 45.25C30.2763 45.25 30.1602 45.1339 30.1602 45C30.1602 41.0893 34.0351 37.75 39.0002 37.75C39.134 37.75 39.2502 37.8661 39.2502 38C39.2502 38.1339 39.134 38.25 39.0002 38.25C34.5161 38.25 30.6602 41.1738 30.6602 45C30.6602 45.1339 30.544 45.25 30.4102 45.25Z" fill="#00DFEB" stroke="#00DFEB"/>
<path d="M45.2 44.65C43.2962 44.65 41.75 43.1039 41.75 41.2C41.75 39.2962 43.2962 37.75 45.2 37.75C47.1039 37.75 48.65 39.2962 48.65 41.2C48.65 43.1039 47.1039 44.65 45.2 44.65ZM45.2 38.25C43.5739 38.25 42.25 39.5739 42.25 41.2C42.25 42.8262 43.5739 44.15 45.2 44.15C46.8262 44.15 48.15 42.8262 48.15 41.2C48.15 39.5739 46.8262 38.25 45.2 38.25Z" fill="#00DFEB" stroke="#00DFEB"/>
<path d="M49 45.25C48.9354 45.25 48.8747 45.2277 48.8235 45.1764L47.8235 44.1764C47.7288 44.0817 47.7288 43.9182 47.8235 43.8235C47.9182 43.7288 48.0817 43.7288 48.1764 43.8235L49.1764 44.8235C49.2712 44.9182 49.2712 45.0817 49.1764 45.1764C49.1252 45.2277 49.0646 45.25 49 45.25Z" fill="#00DFEB" stroke="#00DFEB"/>
</svg>