<svg width="20" height="20" viewBox="0 0 20 20" fill="none" xmlns="http://www.w3.org/2000/svg">
<path d="M6.41878 5.75526L8.75857 0.805684C9.01223 0.269092 9.50526 0.00053079 9.99855 8.30905e-07C10.4928 -0.000545188 10.9873 0.268016 11.2415 0.805684L13.5813 5.75526L18.8133 6.54896C19.9486 6.72123 20.4021 8.17809 19.5804 9.01427L15.7946 12.867L16.6883 18.3071C16.8823 19.4878 15.6953 20.3882 14.6796 19.8308L10 17.2623L5.32044 19.8308C4.30481 20.3882 3.11776 19.4878 3.31174 18.3071L4.20545 12.867L0.419588 9.01427C-0.402077 8.17809 0.0513179 6.72123 1.18684 6.54896L6.41878 5.75526ZM9.99855 15.6354C10.2203 15.6353 10.4421 15.6905 10.6443 15.8015L15.1195 18.2579L14.2648 13.0553C14.1878 12.5864 14.3367 12.108 14.6629 11.7759L18.2835 8.09142L13.2801 7.33237C12.8291 7.26396 12.4393 6.96829 12.2377 6.54171L10 1.80821L9.99855 1.81132V15.6354Z" fill="#00DFEB"/>
</svg>