<svg width="96" height="96" viewBox="0 0 96 96" fill="none" xmlns="http://www.w3.org/2000/svg">
<g filter="url(#filter0_d_205_9588)">
<circle r="40" transform="matrix(1 0 0 -1 48 44)" fill="white"/>
<circle r="39.5" transform="matrix(1 0 0 -1 48 44)" stroke="#00DFEB"/>
</g>
<path d="M33.796 67.716H40.18V65.004H32.788V65.784H39.196V66.972H32.824V69.756H40.444V68.976H33.796V67.716ZM39.904 63.132C40.144 61.92 40.144 60.996 40.144 60.264V59.58H32.884V60.372H39.172C39.172 61.08 39.16 61.944 38.92 63.132H31.636V63.924H41.404V63.132H39.904ZM52.3111 64.632C50.8951 64.032 50.1511 62.676 50.1511 61.368V60H49.1551V61.368C49.1551 62.424 48.6271 63.72 47.5471 64.464C46.4551 63.696 45.9031 62.364 45.9031 61.368V60H44.9311V61.368C44.9311 62.556 44.1511 64.008 42.7711 64.632L43.2991 65.388C44.3191 64.896 45.0391 63.984 45.4111 62.964C45.7471 64.008 46.4551 65.004 47.5351 65.508C48.6151 65.016 49.3111 64.056 49.6591 63.024C50.0191 64.044 50.7391 64.92 51.7711 65.388L52.3111 64.632ZM42.6751 67.644V68.46H52.4311V67.644H42.6751ZM54.3501 60.288V61.08H58.3941C58.1901 63.636 56.7501 65.7 53.8581 67.08L54.3861 67.884C57.9621 66.132 59.3901 63.396 59.3901 60.288H54.3501ZM61.5621 59.124V69.888H62.5461V59.124H61.5621Z" fill="#5A6166"/>
<path d="M57.9182 22.5848C56.1277 20.7943 53.2058 20.7943 51.4263 22.5738L37.1902 36.8098C36.6959 37.3041 36.1577 38.2598 35.9819 38.9408L35.3888 41.3355C34.6967 44.0926 36.3993 45.7952 39.1565 45.1032L41.5511 44.51C42.2322 44.3343 43.1878 43.796 43.6821 43.3017L57.9182 29.0657C59.6977 27.2862 59.6977 24.3643 57.9182 22.5848Z" stroke="#5A6166" stroke-width="1.5" stroke-linecap="round"/>
<path d="M55.6662 31.3175L49.1743 24.8256" stroke="#5A6166" stroke-width="1.5" stroke-linecap="round"/>
<defs>
<filter id="filter0_d_205_9588" x="0" y="0" width="96" height="96" filterUnits="userSpaceOnUse" color-interpolation-filters="sRGB">
<feFlood flood-opacity="0" result="BackgroundImageFix"/>
<feColorMatrix in="SourceAlpha" type="matrix" values="0 0 0 0 0 0 0 0 0 0 0 0 0 0 0 0 0 0 127 0" result="hardAlpha"/>
<feOffset dy="4"/>
<feGaussianBlur stdDeviation="4"/>
<feComposite in2="hardAlpha" operator="out"/>
<feColorMatrix type="matrix" values="0 0 0 0 0 0 0 0 0 0 0 0 0 0 0 0 0 0 0.15 0"/>
<feBlend mode="normal" in2="BackgroundImageFix" result="effect1_dropShadow_205_9588"/>
<feBlend mode="normal" in="SourceGraphic" in2="effect1_dropShadow_205_9588" result="shape"/>
</filter>
</defs>
</svg>